#!OML:ASF I:\golf\golf\golf 2\Subject 1\2002-09-07\Subject1.ASF
:FULLY-SPECIFIED
:DEGREES
492
root -5.78747 18.0458 -1.36719 -166.729 1.61318 -176.1
lowerback -5.77489 8.67077 7.8099
upperback -8.51143 12.9812 2.05216
thorax -4.67143 6.72135 -1.81822
lowerneck -16.088 -14.1831 -2.62407
upperneck 4.52818 -18.9153 4.78387
head 4.56895 -9.12895 0.183805
rclavicle 4.25399e-014 5.00937e-014
rhumerus 91.2093 27.8561 -52.5094
rradius 35.5847
rwrist -10.3247
rhand -40.7718 30.0404
rfingers 7.12502
rthumb -13.7117 0.512112
lclavicle 4.25399e-014 5.00937e-014
lhumerus 64.7162 0.570176 63.3147
lradius 35.2519
lwrist 38.5342
lhand -14.0412 10.3156
lfingers 7.12502
lthumb -167.911 579.946
rfemur 9.37815 -5.90124 20.0718
rtibia 24.2352
rfoot 30.7976 -25.2874
rtoes 17.9123
lfemur -28.4847 -17.0115 -11.8346
ltibia 24.2702
lfoot 38.0109 -40.812
ltoes 52.0745
493
root -5.78354 18.0485 -1.35701 -166.733 1.66429 -175.985
lowerback -5.56354 8.69637 7.92757
upperback -8.41682 12.9971 2.05242
thorax -4.65974 6.71176 -1.90179
lowerneck -16.3276 -14.1965 -2.52699
upperneck 4.55886 -18.9254 4.60067
head 4.58711 -9.13757 0.102188
rclavicle 4.90998e-014 -4.05521e-014
rhumerus 90.164 28.2164 -53.4059
rradius 35.6322
rwrist -9.50081
rhand -40.5995 29.6799
rfingers 7.12502
rthumb -13.5457 0.14053
lclavicle 4.90998e-014 -4.05521e-014
lhumerus 64.4971 0.0988284 64.303
lradius 34.8832
lwrist 37.8475
lhand -13.8922 10.231
lfingers 7.12502
lthumb -167.767 579.853
rfemur 9.37857 -5.99787 20.1032
rtibia 24.2756
rfoot 31.0786 -24.7323
rtoes 18.768
lfemur -28.5121 -17.0525 -11.6828
ltibia 24.3357
lfoot 37.2371 -41.3209
ltoes 51.5178
494
root -5.77681 18.0518 -1.34445 -166.688 1.70553 -175.975
lowerback -5.4014 8.65656 7.87802
upperback -8.34937 12.9203 2.00483
thorax -4.67693 6.66078 -1.94959
lowerneck -16.5808 -14.1121 -2.22958
upperneck 4.55937 -18.8483 4.40556
head 4.57677 -9.10399 0.00169769
rclavicle -3.08116e-014 1.11319e-014
rhumerus 89.1921 28.6571 -54.6377
rradius 35.4848
rwrist -8.51792
rhand -40.1341 29.8567
rfingers 7.12502
rthumb -13.097 0.287914
lclavicle -3.08116e-014 1.11319e-014
lhumerus 64.1233 -0.261335 64.3952
lradius 34.7657
lwrist 37.739
lhand -13.7846 10.4619
lfingers 7.12502
lthumb -167.663 580.078
rfemur 9.32158 -6.07898 20.0616
rtibia 24.2774
rfoot 31.2721 -24.3165
rtoes 18.7139
lfemur -28.6218 -17.0019 -11.641
ltibia 24.423
lfoot 36.6368 -41.7414
ltoes 51.1533
495
root -5.76882 18.052 -1.32936 -166.642 1.75401 -176.065
lowerback -5.24475 8.68388 7.70929
upperback -8.19921 12.9021 1.91129
thorax -4.60696 6.63979 -1.96778
lowerneck -17.0906 -14.038 -1.98175
upperneck 4.54815 -18.7851 4.30427
head 4.61608 -9.06955 -0.0849329
rclavicle -3.22031e-014 -5.80451e-014
rhumerus 88.8366 28.5541 -54.3209
rradius 35.5733
rwrist -8.99958
rhand -40.1407 30.2603
rfingers 7.12502
rthumb -13.1034 0.691914
lclavicle -3.22031e-014 -5.80451e-014
lhumerus 63.8706 -0.732506 64.2874
lradius 34.809
lwrist 38.1348
lhand -14.2562 10.5887
lfingers 7.12502
lthumb -168.118 580.232
rfemur 9.24023 -5.97946 19.9926
rtibia 24.2877
rfoot 30.8697 -24.3829
rtoes 16.3126
lfemur -28.7481 -16.9389 -11.6883
ltibia 24.4904
lfoot 36.5843 -41.7781
ltoes 51.0636
496
root -5.76186 18.0581 -1.3183 -166.593 1.80928 -176.073
lowerback -5.12093 8.79419 7.63483
upperback -7.98524 12.966 1.76314
thorax -4.41254 6.6537 -2.06687
lowerneck -18.0312 -14.0383 -1.66687
upperneck 4.76355 -18.8521 4.25006
head 4.79345 -9.08144 -0.21951
rclavicle 7.18607e-014 1.19271e-014
rhumerus 88.5901 28.2433 -53.921
rradius 35.5687
rwrist -9.45851
rhand -40.4781 30.3344
rfingers 7.12502
rthumb -13.4287 0.787248
lclavicle 7.18607e-014 1.19271e-014
lhumerus 63.9029 -1.40425 64.2315
lradius 34.8362
lwrist 39.3345
lhand -15.7491 10.2126
lfingers 7.12502
lthumb -169.558 579.933
rfemur 9.12853 -5.88508 19.9994
rtibia 24.3374
rfoot 30.5599 -24.414
rtoes 15.5414
lfemur -28.8009 -16.8975 -11.6464
ltibia 24.4885
lfoot 35.8426 -42.3641
ltoes 50.3054
497
root -5.75642 18.0653 -1.30758 -166.485 1.8551 -176.037
lowerback -5.02504 8.83824 7.63165
upperback -7.94154 13.0044 1.68489
thorax -4.39544 6.66277 -2.1518
lowerneck -18.2964 -14.0351 -1.61423
upperneck 4.81344 -18.869 4.30282
head 4.85029 -9.08074 -0.233265
rclavicle -3.57812e-015 2.38542e-015
rhumerus 87.904 28.4053 -54.3156
rradius 35.3924
rwrist -9.13863
rhand -40.6219 30.3953
rfingers 7.12502
rthumb -13.5672 0.85735
lclavicle -3.57812e-015 2.38542e-015
lhumerus 63.7602 -1.62759 65.1643
lradius 34.3187
lwrist 37.534
lhand -13.6885 10.4495
lfingers 7.12502
lthumb -167.571 580.06
rfemur 8.94532 -5.85959 20.0337
rtibia 24.4078
rfoot 30.8911 -24.0111
rtoes 15.3249
lfemur -28.898 -16.9204 -11.5253
ltibia 24.4181
lfoot 35.1602 -42.774
ltoes 49.6887
498
root -5.75237 18.0686 -1.29708 -166.387 1.91966 -176.101
lowerback -4.95892 8.8884 7.55561
upperback -7.8741 13.0374 1.57566
thorax -4.34262 6.6707 -2.22264
lowerneck -18.4753 -14.0006 -1.41222
upperneck 4.69022 -18.8533 4.20232
head 4.80906 -9.07999 -0.290815
rclavicle -1.68669e-013 -3.4191e-014
rhumerus 87.1961 28.521 -54.6081
rradius 35.4262
rwrist -8.96786
rhand -40.6966 30.3509
rfingers 7.12502
rthumb -13.6392 0.817781
lclavicle -1.68669e-013 -3.4191e-014
lhumerus 63.4616 -2.09527 65.4662
lradius 34.2287
lwrist 37.4238
lhand -13.3775 10.8556
lfingers 7.12502
lthumb -167.271 580.448
rfemur 8.79193 -5.77229 19.9646
rtibia 24.4862
rfoot 31.262 -23.5153
rtoes 16.1972
lfemur -29.0048 -16.9654 -11.5161
ltibia 24.3275
lfoot 35.1556 -42.6512
ltoes 49.6543
499
root -5.74834 18.0665 -1.28813 -166.315 1.96062 -176.153
lowerback -4.94621 8.91951 7.48742
upperback -7.77409 13.035 1.4874
thorax -4.23163 6.66334 -2.26445
lowerneck -18.5885 -13.957 -1.23048
upperneck 4.52052 -18.8256 4.13714
head 4.74862 -9.07463 -0.328138
rclavicle -2.36554e-014 -3.65764e-014
rhumerus 86.518 28.6667 -54.8626
rradius 35.5228
rwrist -8.86103
rhand -40.8424 30.2585
rfingers 7.12502
rthumb -13.7797 0.734888
lclavicle -2.36554e-014 -3.65764e-014
lhumerus 63.1481 -2.56451 65.6946
lradius 34.1704
lwrist 37.5859
lhand -13.6335 11.0707
lfingers 7.12502
lthumb -167.517 580.678
rfemur 8.68252 -5.70282 19.9043
rtibia 24.5974
rfoot 31.0307 -23.2837
rtoes 14.7059
lfemur -29.0856 -16.9577 -11.5175
ltibia 24.2244
lfoot 35.8264 -42.0909
ltoes 50.2037
500
root -5.74528 18.0612 -1.27787 -166.203 1.93894 -176.05
lowerback -4.92977 8.94207 7.56984
upperback -7.72604 13.0465 1.45537
thorax -4.16364 6.66266 -2.33251
lowerneck -18.6323 -13.9383 -1.16864
upperneck 4.3818 -18.8171 4.17347
head 4.70933 -9.07351 -0.321147
rclavicle -8.0806e-014 -6.67916e-014
rhumerus 85.8445 28.8114 -55.053
rradius 35.5326
rwrist -8.80185
rhand -40.9616 30.4316
rfingers 7.12502
rthumb -13.8946 0.915765
lclavicle -8.0806e-014 -6.67916e-014
lhumerus 62.8277 -2.98128 66.3414
lradius 33.9441
lwrist 37.2109
lhand -13.5975 10.9993
lfingers 7.12502
lthumb -167.483 580.604
rfemur 8.51596 -5.76682 19.9898
rtibia 24.7337
rfoot 30.6934 -23.1116
rtoes 14.07
lfemur -29.2381 -16.9726 -11.3175
ltibia 24.1176
lfoot 37.0179 -41.0171
ltoes 51.3017
501
root -5.74338 18.0587 -1.27017 -166.108 1.94931 -175.98
lowerback -4.92124 8.96506 7.60654
upperback -7.67699 13.0598 1.43513
thorax -4.10172 6.6656 -2.36465
lowerneck -18.7199 -13.8868 -1.0735
upperneck 4.30201 -18.7677 4.15574
head 4.68599 -9.05203 -0.334892
rclavicle 1.33186e-014 2.06736e-014
rhumerus 85.231 28.9781 -55.2877
rradius 35.4362
rwrist -8.90193
rhand -40.8706 31.1037
rfingers 7.12502
rthumb -13.8069 1.58189
lclavicle 1.33186e-014 2.06736e-014
lhumerus 62.4317 -3.39362 66.9635
lradius 33.7536
lwrist 36.8933
lhand -13.6066 10.9424
lfingers 7.12502
lthumb -167.492 580.548
rfemur 8.36741 -5.9351 19.9694
rtibia 24.8707
rfoot 30.4613 -22.9772
rtoes 15.225
lfemur -29.3424 -16.9938 -11.182
ltibia 24.0204
lfoot 37.595 -40.3734
ltoes 51.8105
502
root -5.73972 18.0569 -1.26329 -166.068 2.00408 -176.037
lowerback -4.89359 8.97523 7.49801
upperback -7.60802 13.0475 1.39015
thorax -4.05237 6.65741 -2.35175
lowerneck -18.8608 -13.8058 -0.918096
upperneck 4.32178 -18.6852 4.04986
head 4.68728 -9.01408 -0.385658
rclavicle 1.57437e-013 2.46493e-014
rhumerus 84.583 29.2229 -55.7718
rradius 35.2881
rwrist -8.94725
rhand -40.6256 31.4718
rfingers 7.12502
rthumb -13.5708 1.93403
lclavicle 1.57437e-013 2.46493e-014
lhumerus 62.0196 -3.7945 67.2999
lradius 33.6129
lwrist 36.7812
lhand -13.6593 11.1437
lfingers 7.12502
lthumb -167.542 580.752
rfemur 8.2786 -6.00205 19.838
rtibia 25.0106
rfoot 30.0101 -23.1945
rtoes 16.1352
lfemur -29.3547 -16.8508 -11.2578
ltibia 23.9271
lfoot 37.9564 -40.1492
ltoes 51.8848
503
root -5.73525 18.0581 -1.25354 -166.031 2.01565 -176.117
lowerback -4.8017 8.96935 7.38742
upperback -7.56191 13.0236 1.3363
thorax -4.06233 6.64085 -2.36242
lowerneck -18.9776 -13.7389 -0.803296
upperneck 4.41357 -18.6106 3.92342
head 4.70955 -8.97859 -0.439789
rclavicle -7.7526e-014 -4.92986e-014
rhumerus 83.8547 29.4986 -56.3744
rradius 35.1487
rwrist -8.93423
rhand -40.3596 30.4636
rfingers 7.12502
rthumb -13.3144 0.908948
lclavicle -7.7526e-014 -4.92986e-014
lhumerus 61.5704 -4.15537 67.6874
lradius 33.5024
lwrist 36.5449
lhand -13.4272 11.435
lfingers 7.12502
lthumb -167.319 581.03
rfemur 8.17772 -5.89426 19.7969
rtibia 25.1379
rfoot 29.6352 -23.529
rtoes 16.2891
lfemur -29.3881 -16.7372 -11.3344
ltibia 23.8429
lfoot 38.2274 -39.9882
ltoes 51.9843
504
root -5.73093 18.0597 -1.24375 -165.967 2.01628 -176.217
lowerback -4.7545 8.94845 7.24059
upperback -7.51697 12.9795 1.29577
thorax -4.06105 6.61808 -2.335
lowerneck -19.0155 -13.6558 -0.7232
upperneck 4.3791 -18.5125 3.86994
head 4.69044 -8.93416 -0.455743
rclavicle 1.10822e-013 3.49861e-014
rhumerus 83.1768 29.7452 -56.75
rradius 35.1362
rwrist -9.16425
rhand -40.0927 29.67
rfingers 7.12502
rthumb -13.0572 0.0986746
lclavicle 1.10822e-013 3.49861e-014
lhumerus 61.0512 -4.43338 68.2257
lradius 33.4038
lwrist 36.1862
lhand -13.1178 11.392
lfingers 7.12502
lthumb -167.02 580.968
rfemur 8.03588 -5.77093 19.7563
rtibia 25.2506
rfoot 29.6057 -23.4262
rtoes 17.4436
lfemur -29.4584 -16.7502 -11.3877
ltibia 23.7541
lfoot 38.2668 -39.9141
ltoes 52.0879
505
root -5.72668 18.0589 -1.2339 -165.932 2.02466 -176.273
lowerback -4.69258 8.93894 7.16249
upperback -7.44593 12.9455 1.26526
thorax -4.02803 6.59754 -2.33038
lowerneck -19.0007 -13.5623 -0.648653
upperneck 4.17706 -18.4075 3.90882
head 4.62034 -8.88922 -0.433251
rclavicle 1.49089e-013 3.33958e-014
rhumerus 82.5914 29.936 -56.8061
rradius 35.2877
rwrist -9.47933
rhand -40.0607 29.5853
rfingers 7.12502
rthumb -13.0263 0.0119987
lclavicle 1.49089e-013 3.33958e-014
lhumerus 60.5599 -4.6877 68.7076
lradius 33.3527
lwrist 35.9703
lhand -13.0546 11.4019
lfingers 7.12502
lthumb -166.959 580.974
rfemur 7.93449 -5.6758 19.7372
rtibia 25.3364
rfoot 29.7534 -23.1209
rtoes 16.4184
lfemur -29.498 -16.6933 -11.4208
ltibia 23.6701
lfoot 38.4962 -39.8648
ltoes 52.1331
506
root -5.72336 18.0597 -1.22321 -165.907 1.99662 -176.247
lowerback -4.58429 8.93416 7.21203
upperback -7.38354 12.9253 1.2474
thorax -4.00748 6.57888 -2.38559
lowerneck -19.0624 -13.4932 -0.594257
upperneck 4.11891 -18.3299 3.91656
head 4.60618 -8.85232 -0.431486
rclavicle -9.93923e-015 3.02153e-014
rhumerus 81.9445 30.1536 -56.9315
rradius 35.4773
rwrist -9.61929
rhand -40.1601 29.2873
rfingers 7.12502
rthumb -13.1221 -0.279887
lclavicle -9.93923e-015 3.02153e-014
lhumerus 60.1118 -4.97784 69.1145
lradius 33.2746
lwrist 35.8318
lhand -13.1438 11.6308
lfingers 7.12502
lthumb -167.045 581.209
rfemur 7.86402 -5.53729 19.8277
rtibia 25.3922
rfoot 29.8321 -23.2058
rtoes 17.0583
lfemur -29.5429 -16.7769 -11.3201
ltibia 23.5981
lfoot 38.4902 -39.7989
ltoes 52.0158
